<?xml version="1.0" encoding="utf-8"?>
<!-- Generator: Adobe Adobe Illustrator 24.2.0, SVG Export Plug-In . SVG Version: 6.00 Build 0)  -->
<svg version="1.1" id="layers_copy" xmlns="http://www.w3.org/2000/svg" xmlns:xlink="http://www.w3.org/1999/xlink" x="0px"
	 y="0px" viewBox="0 0 2120 2260" style="enable-background:new 0 0 2120 2260;" xml:space="preserve">
<style type="text/css">
	.Łukowy_x0020_zielony{fill:url(#SVGID_1_);stroke:#FFFFFF;stroke-width:0.25;stroke-miterlimit:1;}
	.st0{fill:#424242;}
	.st1{fill:#FBC200;}
	.st2{fill:#CBE4F5;}
	.st3{fill:#1996F0;}
	.st4{fill:#F06B00;}
</style>
<linearGradient id="SVGID_1_" gradientUnits="userSpaceOnUse" x1="-1041.7446" y1="2261.8406" x2="-1041.0376" y2="2261.1335">
	<stop  offset="0" style="stop-color:#1EAA4B"/>
	<stop  offset="0.9831" style="stop-color:#19361A"/>
</linearGradient>
<g>
	<g>
		<g>
			<g>
				<path class="st0" d="M1060.63,585.05c0,46.4-37.65,83.97-84.02,83.97c-46.39,0-84.01-37.57-84.01-83.97
					c0-46.41,37.62-84,84.01-84C1022.98,501.04,1060.63,538.63,1060.63,585.05z"/>
			</g>
			<g>
				<path class="st1" d="M953.56,1221.75c0-76.13,11.81-149.43,33.47-218.4l-96.78-96.74c-37.71-37.73-66.44-84.39-82.89-136.51
					C662.77,871.3,568.12,1039,568.12,1228.96c0,309.24,250.59,559.85,559.82,559.94c30.48-0.04,60.32-2.49,89.79-6.14
					C1056.4,1649.23,953.56,1447.52,953.56,1221.75z"/>
			</g>
			<path class="st2" d="M1217.65,1783.06c125.97,104.23,287.54,166.88,463.83,166.88c76.09,0,149.39-11.77,218.38-33.43
				l-300.96-300.94C1493.42,1705.3,1362.18,1765.24,1217.65,1783.06z"/>
			<path class="st3" d="M1111.88,1128.16l-124.85-124.82c-21.66,68.97-33.47,142.27-33.47,218.4
				c0,225.77,102.84,427.48,264.16,561.01c144.53-17.82,275.78-77.76,381.25-167.49L1111.88,1128.16z"/>
			<g>
				<path class="st4" d="M1127.94,638.5h268.79c0,164.5-120.25,297.69-268.79,297.69V638.5z"/>
			</g>
			<path class="st4" d="M568.12,1228.96c0-189.97,94.65-357.66,239.24-458.87c-10.04-31.93-15.55-65.85-15.55-101.07
				c0-173.95,125.27-310.17,301.63-334.25c-373.51,0-693.59,335.71-693.59,726.2c0,402.06,325.87,727.93,727.93,727.93
				c0.06,0,0.12,0,0.15,0C818.72,1788.82,568.12,1538.21,568.12,1228.96z"/>
			<g>
				<g>
					<path class="st1" d="M1310.97,673.44c19.51-21.2,47.3-34.46,78.16-34.46c28.1,0,53.67,11,72.74,28.98
						c-2.89-184.59-151.29-333.19-333.93-333.19v211.79v105.5c0.21,0.37,0.44,0.75,0.67,1.11c4.44,7.34,9.75,14.16,15.82,20.27
						c20.81,21.09,50.38,34.25,83.19,34.25c32.81,0,62.38-13.15,83.19-34.25H1310.97z"/>
				</g>
			</g>
		</g>
	</g>
</g>
</svg>
