<?xml version="1.0" encoding="utf-8"?>
<!-- Generator: Adobe Adobe Illustrator 24.2.0, SVG Export Plug-In . SVG Version: 6.00 Build 0)  -->
<svg version="1.1" id="layers_copy" xmlns="http://www.w3.org/2000/svg" xmlns:xlink="http://www.w3.org/1999/xlink" x="0px"
	 y="0px" viewBox="0 0 1200 1200" style="enable-background:new 0 0 1200 1200;" xml:space="preserve">
<style type="text/css">
	.Łukowy_x0020_zielony{fill:url(#SVGID_1_);stroke:#FFFFFF;stroke-width:0.25;stroke-miterlimit:1;}
	.st0{fill:#424242;}
	.st1{fill:#F06B00;}
	.st2{fill:#FBBA00;}
	.st3{fill:#B6D9F2;}
	.st4{fill:#0C92F1;}
</style>
<linearGradient id="SVGID_1_" gradientUnits="userSpaceOnUse" x1="-1939.4847" y1="2344.3892" x2="-1938.7776" y2="2343.6821">
	<stop  offset="0" style="stop-color:#1EA94B"/>
	<stop  offset="0.9831" style="stop-color:#19361A"/>
</linearGradient>
<path class="st0" d="M575.73,223.75c0,31.17-25.3,56.42-56.45,56.42c-31.17,0-56.44-25.24-56.44-56.42
	c0-31.18,25.27-56.44,56.44-56.44C550.43,167.32,575.73,192.57,575.73,223.75z"/>
<path class="st1" d="M611.23,1032.37c1.54,0.04,3.09,0.07,4.64,0.1c-5.63-0.05-11.23-0.2-16.81-0.45c-9.99-0.43-19.9-1.17-29.73-2.2
	c-32.25-3.37-63.57-9.88-93.65-19.22c-199.23-61.82-343.89-247.55-343.89-467.1c0-262.32,215.04-487.83,465.98-487.83
	C479.29,71.84,395.12,163.35,395.12,280.21c0,20.83,2.87,40.98,8.16,60.15c0.72,2.6,1.48,5.18,2.29,7.74
	c-0.06,0.04-0.12,0.08-0.18,0.13c-97.05,68-160.56,180.6-160.56,308.12c0,189.4,139.94,346.06,322.09,372.28
	c11.21,1.62,22.57,2.74,34.07,3.35C604.39,1032.15,607.81,1032.29,611.23,1032.37z"/>
<path class="st2" d="M690.12,1031.68c-19.8,2.45-39.85,4.1-60.35,4.14h-0.33c-1.51,0-3.03-0.01-4.54-0.03
	c-0.07,0.01-0.14,0.01-0.21,0c-1.56-0.03-3.11-0.06-4.66-0.1c-3.48-0.08-6.95-0.21-10.41-0.39c-11.47-0.6-22.81-1.71-33.99-3.32
	c-2.96-0.42-5.91-0.88-8.86-1.38c-119.36-45.16-205.93-179.43-205.93-338.05c0-104.47,34.1-194.42,93.84-259.26
	c1.6,1.85,4.55,4.68,6.21,6.47c2.03,2.2,2.83,2.83,4.94,4.94l60.45,60.09c-14.6,46.48-14.32,97.56-14.32,148.86
	c0,148.41,66,281.39,170.22,371.32C684.8,1027.24,687.45,1029.48,690.12,1031.68z"/>
<g>
	<g>
		<path class="st1" d="M569.19,1029.92c-0.78-0.38-1.56-0.76-2.33-1.15c-0.03,0-0.05-0.02-0.08-0.04
			c-119.61-59.35-202.7-190.19-202.7-342.07c0-97.62,34.32-186.54,90.6-253.38c-22.27-24.11-39.16-53-49.29-85.06
			c0.06-0.05,0.12-0.09,0.18-0.13c-0.81-2.56-1.73-5.21-2.45-7.81c-94.1,66.01-156.83,180.06-158.63,310.1
			c-0.01,0.66-0.02,1.32-0.03,1.98c-0.01,1.19-0.02,2.38-0.02,3.58v0.22c0,2.21,0.02,4.41,0.06,6.6c0.01,1.1,0.04,2.2,0.06,3.3
			c3.8,159.32,99.04,293.98,230.97,344.64c30.68,11.79,63.36,19.03,97.32,20.97C571.63,1031.1,570.4,1030.51,569.19,1029.92z"/>
	</g>
</g>
<path class="st3" d="M685.21,1030.6c85.49,71.07,195.15,113.79,314.79,113.79c51.64,0,101.39-8.03,148.21-22.8l-204.25-205.2
	C872.37,977.57,783.29,1018.45,685.21,1030.6z"/>
<path class="st4" d="M612.72,589.09l-86.44-84.3c-14.83,46.7-21.98,96.12-21.98,147.66c0,152.86,70.43,289.42,180.91,379.82
	c98.98-12.06,188.86-52.65,261.09-113.4L612.72,589.09z"/>
<g>
	<path class="st1" d="M620.95,259.67h180.59c0,110.52-80.79,200-180.59,200V259.67z"/>
</g>
<g>
	<g>
		<path class="st2" d="M743.93,283.14c13.11-14.24,31.77-23.15,52.49-23.15c18.88,0,36.05,7.4,48.87,19.49
			C843.36,155.45,743.66,55.61,620.95,55.61V197.9v70.88c0.14,0.25,0.3,0.5,0.45,0.75c2.98,4.93,6.55,9.51,10.63,13.62
			c13.98,14.17,33.85,23.01,55.89,23.01c22.04,0,41.91-8.84,55.89-23.01H743.93z"/>
	</g>
</g>
</svg>
